<?xml version="1.0" encoding="UTF-8" standalone="no"?>
<svg
   version="1.1"
   width="612pt"
   height="792pt"
   id="svg22"
   viewBox="0 0 612 792"
   sodipodi:docname="bishop-white.cdr"
   xmlns:inkscape="http://www.inkscape.org/namespaces/inkscape"
   xmlns:sodipodi="http://sodipodi.sourceforge.net/DTD/sodipodi-0.dtd"
   xmlns="http://www.w3.org/2000/svg"
   xmlns:svg="http://www.w3.org/2000/svg">
  <defs
     id="defs26" />
  <sodipodi:namedview
     id="namedview24"
     pagecolor="#ffffff"
     bordercolor="#000000"
     borderopacity="0.25"
     inkscape:showpageshadow="2"
     inkscape:pageopacity="0.0"
     inkscape:pagecheckerboard="0"
     inkscape:deskcolor="#d1d1d1"
     inkscape:document-units="pt" />
  <path
     d="m 230.8697,78.4269 91.8999,91.8991 -40.8065,41.6993 -87.8032,-88.6385 c -56.4219,97.1176 -4.3729,253.8127 118.0937,253.8127 41.0207,0 77.9701,-20.1721 103.8329,-52.4058 C 480.0229,245.1046 456.8553,124.8931 386.9691,73.6564 345.3535,43.1473 277.145,39.4363 230.8697,78.4269 Z"
     style="fill:#006db2;fill-rule:evenodd"
     id="path2" />
  <path
     d="M 503.2751,737.1303 H 127.0708 c -4.972,-13.4492 -7.7942,-29.9908 0,-45.4297 40.1176,-79.4705 336.0867,-79.4705 376.2043,0 7.7958,15.4389 4.9721,31.9805 0,45.4297 z"
     style="fill:#097abb;fill-rule:evenodd"
     id="path4" />
  <path
     d="M 503.2751,737.1303 H 127.0708 c -4.972,-13.4492 -7.7942,-29.9908 0,-45.4297 40.1176,-79.4705 336.0867,-79.4705 376.2043,0 7.7958,15.4389 4.9721,31.9805 0,45.4297 z"
     style="fill:#62aedb;fill-rule:evenodd;stroke:#006db2;stroke-width:55.4636;stroke-linecap:butt;stroke-linejoin:miter;stroke-dasharray:none"
     id="path6" />
  <path
     d="M 207.3342,643.1209 H 423.0129 L 334.5986,334.4121 h -54.9017 z"
     style="fill:#097abb;fill-rule:evenodd"
     id="path8" />
  <path
     d="M 207.3342,643.1209 H 423.0129 L 334.5986,334.4121 h -54.9017 z"
     style="fill:#62aedb;fill-rule:evenodd;stroke:#006db2;stroke-width:49.9169;stroke-linecap:butt;stroke-linejoin:miter;stroke-dasharray:none"
     id="path10" />
  <path
     d="m 397.9231,356.8857 c 0,9.172 -38.5735,16.6027 -86.1552,16.6027 -47.5833,0 -86.1545,-7.4307 -86.1545,-16.6027 0,-9.1676 38.5712,-16.5995 86.1545,-16.5995 47.5817,0 86.1552,7.4319 86.1552,16.5995 z"
     style="fill:#097abb;fill-rule:evenodd"
     id="path12" />
  <path
     d="m 397.9231,356.8857 c 0,9.172 -38.5735,16.6027 -86.1552,16.6027 -47.5833,0 -86.1545,-7.4307 -86.1545,-16.6027 0,-9.1676 38.5712,-16.5995 86.1545,-16.5995 47.5817,0 86.1552,7.4319 86.1552,16.5995 z"
     style="fill:none;stroke:#006db2;stroke-width:55.4636;stroke-linecap:butt;stroke-linejoin:miter;stroke-dasharray:none"
     id="path14" />
  <path
     d="m 311.7679,87.0711 c -20.0407,0 -38.7906,6.3582 -54.8525,17.4019 l 65.8542,65.853 -41.0906,41.0906 -62.7376,-62.7384 c -9.3319,18.4209 -14.7024,39.8489 -14.7024,62.7384 0,68.6747 48.1436,124.3451 107.5289,124.3451 59.3841,0 107.5273,-55.6704 107.5273,-124.3451 0,-68.674 -48.1432,-124.3455 -107.5273,-124.3455 z"
     style="fill:#58a7d7;fill-rule:evenodd"
     id="path16" />
  <path
     d="m 368.7721,262.5788 c 11.1533,-6.9828 18.623,-13.7788 25.6725,-24.9467 3.268,-5.5575 5.284,-10.3013 7.0507,-16.5039 -1.134,6.2246 -2.5453,11.6991 -4.5613,17.6961 -10.4969,28.5373 -25.4383,47.1714 -51.6698,62.7548 -14.8773,8.0457 -27.2513,11.6783 -44.0936,13.2683 -19.1813,1.2714 -33.7209,-1.1964 -51.8427,-7.5094 17.7271,8.8325 32.3119,13.1349 52.1556,14.1288 18.1318,0.1088 31.747,-2.6218 48.2996,-10.0617 29.8413,-15.2026 47.4164,-35.7038 57.0081,-67.8605 1.7575,-6.7714 2.7155,-12.6611 3.1592,-19.645 2.8517,-22.0379 0.6467,-39.7557 -8.609,-60.0408 -5.5005,-10.6143 -11.8312,-19.6126 -21.009,-27.3354 7.2452,9.4285 12.0445,17.4523 16.2736,28.6013 0.0394,0.0598 0.2165,0.6069 0.2558,0.7199 -0.03,-0.0652 -0.3183,-0.6995 -0.3183,-0.7037 -5.7944,-11.9384 -11.8639,-19.9186 -21.5224,-28.9783 -9.5428,-8.1653 -18.2445,-13.55 -29.4984,-19.1006 48.3393,12.864 14.3163,2.3559 -4.2955,-1.1409 12.6229,5.943 22.5781,11.6676 33.3598,20.583 9.7388,8.8976 15.9673,16.8006 21.7493,28.6927 0.1131,0.1335 0.8863,2.0021 1.0171,2.3112 5.2184,15.7539 6.3072,32.6629 4.0817,49.0619 -1.9041,7.697 -4.2233,13.6087 -8.0944,20.534 -6.6521,11.1177 -13.5666,18.3791 -24.5315,25.3279 -0.0124,0.049 -0.0247,0.098 -0.0371,0.147 z"
     style="fill:#9edbf4;fill-rule:evenodd"
     id="path18" />
  <path
     d="m 369.8374,125.6701 c 3.8594,1.6448 7.418,3.5344 11.0298,5.672 12.9683,8.8192 21.334,17.8333 29.1397,31.4905 4.9626,9.6521 7.9919,18.4181 8.8232,29.2837 1.1801,21.3637 -0.9138,36.6752 -7.8379,57.1318 -5.1752,12.631 -74.0853,114.9422 -12.0413,24.7525 4.8768,-8.395 8.3065,-15.8563 11.4521,-25.0338 9.1608,-30.3663 9.5834,-56.17 -3.6618,-85.2608 -7.0582,-13.5005 -14.3294,-22.7367 -26.3894,-31.9591 -3.2575,-2.2063 -6.8943,-4.4812 -10.5144,-6.0768 z"
     style="fill:#9edbf4;fill-rule:evenodd"
     id="path20" />
</svg>
