<?xml version="1.0" encoding="UTF-8" standalone="no"?>
<svg
   xmlns:dc="http://purl.org/dc/elements/1.1/"
   xmlns:cc="http://creativecommons.org/ns#"
   xmlns:rdf="http://www.w3.org/1999/02/22-rdf-syntax-ns#"
   xmlns:svg="http://www.w3.org/2000/svg"
   xmlns="http://www.w3.org/2000/svg"
   viewBox="0 0 3968.5066 3968.5066"
   height="3968.5066"
   width="3968.5066"
   xml:space="preserve"
   id="svg2"
   version="1.1"><metadata
     id="metadata8"><rdf:RDF><cc:Work
         rdf:about=""><dc:format>image/svg+xml</dc:format><dc:type
           rdf:resource="http://purl.org/dc/dcmitype/StillImage" /></cc:Work></rdf:RDF></metadata><defs
     id="defs6" /><g
     transform="matrix(1.3333333,0,0,-1.3333333,0,3968.5067)"
     id="g10"><g
       transform="scale(0.1)"
       id="g12"><g
         transform="scale(1.826)"
         id="g14"><path
           id="path16"
           style="fill:#ffffff;fill-opacity:1;fill-rule:nonzero;stroke:none"
           d="M 776.189,776.178 H 16300 V 16300 H 776.189 V 776.178" /></g><g
         transform="scale(1.826)"
         id="g18"><path
           id="path20"
           style="fill:#7e65b9;fill-opacity:1;fill-rule:nonzero;stroke:none"
           d="M 0,0 V 16300 H 776.189 V 0 H 0" /></g><g
         transform="scale(1.826)"
         id="g22"><path
           id="path24"
           style="fill:#7e65b9;fill-opacity:1;fill-rule:nonzero;stroke:none"
           d="M 2716.66,14359.5 H 776.189 V 16300 H 2716.66 v -1940.5" /></g><g
         transform="scale(1.60862)"
         id="g26"><path
           id="path28"
           style="fill:#7e65b9;fill-opacity:1;fill-rule:nonzero;stroke:none"
           d="M 5286.49,14097.3 H 3083.78 V 16300 h 2202.71 v -2202.7" /></g><g
         transform="scale(1.39124)"
         id="g30"><path
           id="path32"
           style="fill:#7e65b9;fill-opacity:1;fill-rule:nonzero;stroke:none"
           d="M 3565.62,13753.1 H 1018.75 V 16300 h 2546.87 v -2546.9" /></g><g
         transform="scale(1.17386)"
         id="g34"><path
           id="path36"
           style="fill:#7e65b9;fill-opacity:1;fill-rule:nonzero;stroke:none"
           d="M 7244.43,13281.5 H 4225.92 V 16300 h 3018.51 v -3018.5" /></g><path
         id="path38"
         style="fill:#7e65b9;fill-opacity:1;fill-rule:nonzero;stroke:none"
         d="M 4960.63,12047.3 H 1417.32 v 3543.3 h 3543.31 v -3543.3" /><path
         id="path40"
         style="fill:#7e65b9;fill-opacity:1;fill-rule:nonzero;stroke:none"
         d="M 8503.94,8504 H 4960.63 v 3543.3 H 8503.94 V 8504" /><path
         id="path42"
         style="fill:#7e65b9;fill-opacity:1;fill-rule:nonzero;stroke:none"
         d="M 4960.63,4960.6 H 1417.32 V 8504 H 4960.63 V 4960.6" /><path
         id="path44"
         style="fill:#7e65b9;fill-opacity:1;fill-rule:nonzero;stroke:none"
         d="M 8503.94,1417.3 H 4960.63 V 4960.6 H 8503.94 V 1417.3" /><g
         transform="scale(1.826)"
         id="g46"><path
           id="path48"
           style="fill:#7e65b9;fill-opacity:1;fill-rule:nonzero;stroke:none"
           d="M 6597.59,14359.5 H 4657.14 V 16300 h 1940.45 v -1940.5" /></g><g
         transform="scale(1.39124)"
         id="g50"><path
           id="path52"
           style="fill:#7e65b9;fill-opacity:1;fill-rule:nonzero;stroke:none"
           d="M 8659.34,13753.1 H 6112.5 V 16300 h 2546.84 v -2546.9" /></g><path
         id="path54"
         style="fill:#7e65b9;fill-opacity:1;fill-rule:nonzero;stroke:none"
         d="M 12047.2,12047.3 H 8503.94 v 3543.3 h 3543.26 v -3543.3" /><path
         id="path56"
         style="fill:#7e65b9;fill-opacity:1;fill-rule:nonzero;stroke:none"
         d="M 12047.2,4960.6 H 8503.94 V 8504 H 12047.2 V 4960.6" /><g
         transform="scale(1.60862)"
         id="g58"><path
           id="path60"
           style="fill:#7e65b9;fill-opacity:1;fill-rule:nonzero;stroke:none"
           d="M 9691.85,14097.3 H 7489.16 V 16300 h 2202.69 v -2202.7" /></g><g
         transform="scale(1.17386)"
         id="g62"><path
           id="path64"
           style="fill:#7e65b9;fill-opacity:1;fill-rule:nonzero;stroke:none"
           d="M 13281.4,13281.5 H 10262.9 V 16300 h 3018.5 v -3018.5" /></g><path
         id="path66"
         style="fill:#7e65b9;fill-opacity:1;fill-rule:nonzero;stroke:none"
         d="m 15590.5,8504 h -3543.3 v 3543.3 h 3543.3 V 8504" /><path
         id="path68"
         style="fill:#7e65b9;fill-opacity:1;fill-rule:nonzero;stroke:none"
         d="m 15590.5,1417.3 h -3543.3 v 3543.3 h 3543.3 V 1417.3" /><g
         transform="scale(1.826)"
         id="g70"><path
           id="path72"
           style="fill:#7e65b9;fill-opacity:1;fill-rule:nonzero;stroke:none"
           d="M 10478.6,14359.5 H 8538.06 V 16300 h 1940.54 v -1940.5" /></g><g
         transform="scale(1.39124)"
         id="g74"><path
           id="path76"
           style="fill:#7e65b9;fill-opacity:1;fill-rule:nonzero;stroke:none"
           d="M 13753.1,13753.1 H 11206.2 V 16300 h 2546.9 v -2546.9" /></g><g
         transform="scale(1.17386)"
         id="g78"><path
           id="path80"
           style="fill:#7e65b9;fill-opacity:1;fill-rule:nonzero;stroke:none"
           d="m 16300,10263 h -3018.6 v 3018.5 H 16300 V 10263" /></g><g
         transform="scale(1.17386)"
         id="g82"><path
           id="path84"
           style="fill:#7e65b9;fill-opacity:1;fill-rule:nonzero;stroke:none"
           d="M 16300,4225.89 H 13281.4 V 7244.48 H 16300 V 4225.89" /></g><g
         transform="scale(1.39124)"
         id="g86"><path
           id="path88"
           style="fill:#7e65b9;fill-opacity:1;fill-rule:nonzero;stroke:none"
           d="M 16300,1018.73 H 13753.1 V 3565.6 H 16300 V 1018.73" /></g><g
         transform="scale(1.39124)"
         id="g90"><path
           id="path92"
           style="fill:#7e65b9;fill-opacity:1;fill-rule:nonzero;stroke:none"
           d="M 16300,6112.54 H 13753.1 V 8659.4 H 16300 V 6112.54" /></g><g
         transform="scale(1.39124)"
         id="g94"><path
           id="path96"
           style="fill:#7e65b9;fill-opacity:1;fill-rule:nonzero;stroke:none"
           d="m 16300,11206.3 h -2546.9 v 2546.8 H 16300 v -2546.8" /></g><g
         transform="scale(1.60862)"
         id="g98"><path
           id="path100"
           style="fill:#7e65b9;fill-opacity:1;fill-rule:nonzero;stroke:none"
           d="M 14097.3,14097.3 H 11894.6 V 16300 h 2202.7 v -2202.7" /></g><g
         transform="scale(1.826)"
         id="g102"><path
           id="path104"
           style="fill:#7e65b9;fill-opacity:1;fill-rule:nonzero;stroke:none"
           d="M 14359.5,14359.5 H 12419.1 V 16300 h 1940.4 v -1940.5" /></g><g
         transform="scale(1.60862)"
         id="g106"><path
           id="path108"
           style="fill:#7e65b9;fill-opacity:1;fill-rule:nonzero;stroke:none"
           d="m 16300,11894.6 h -2202.7 v 2202.7 H 16300 v -2202.7" /></g><g
         transform="scale(1.60862)"
         id="g110"><path
           id="path112"
           style="fill:#7e65b9;fill-opacity:1;fill-rule:nonzero;stroke:none"
           d="M 16300,7489.22 H 14097.3 V 9691.91 H 16300 V 7489.22" /></g><g
         transform="scale(1.60862)"
         id="g114"><path
           id="path116"
           style="fill:#7e65b9;fill-opacity:1;fill-rule:nonzero;stroke:none"
           d="M 16300,3084.26 H 14097.3 V 5286.95 H 16300 V 3084.26" /></g><g
         transform="scale(1.826)"
         id="g118"><path
           id="path120"
           style="fill:#7e65b9;fill-opacity:1;fill-rule:nonzero;stroke:none"
           d="M 16300,776.178 H 14359.5 V 2716.65 H 16300 V 776.178" /></g><g
         transform="scale(1.826)"
         id="g122"><path
           id="path124"
           style="fill:#7e65b9;fill-opacity:1;fill-rule:nonzero;stroke:none"
           d="M 16300,4657.17 H 14359.5 V 6597.65 H 16300 V 4657.17" /></g><g
         transform="scale(1.826)"
         id="g126"><path
           id="path128"
           style="fill:#7e65b9;fill-opacity:1;fill-rule:nonzero;stroke:none"
           d="M 16300,8538.12 H 14359.5 V 10478.6 H 16300 V 8538.12" /></g><g
         transform="scale(1.826)"
         id="g130"><path
           id="path132"
           style="fill:#7e65b9;fill-opacity:1;fill-rule:nonzero;stroke:none"
           d="m 16300,12419 h -1940.5 v 1940.5 H 16300 V 12419" /></g><g
         transform="scale(10)"
         id="g134"><text
           id="text150"
           style="font-variant:normal;font-weight:900;font-size:117.76200104px;font-family:MyriadPro;-inkscape-font-specification:MyriadPro-BlackCond;writing-mode:lr-tb;fill:#ffffff;fill-opacity:1;fill-rule:nonzero;stroke:none"
           transform="matrix(1,0,0,-0.84917036,42.3035,248.66)"><tspan
             id="tspan136"
             y="0"
             x="0">1</tspan><tspan
             id="tspan138"
             y="-443.57413"
             x="0.0007812496">2</tspan><tspan
             id="tspan140"
             y="-840.34961"
             x="0.0007812496">3</tspan><tspan
             id="tspan142"
             y="-1258.652"
             x="0">4</tspan><tspan
             id="tspan144"
             y="-1697.2684"
             x="0.0007812496">5</tspan><tspan
             id="tspan146"
             y="-2118.3865"
             x="0.0007812496">6</tspan><tspan
             id="tspan148"
             y="-2523.0144"
             x="0.0007812496">7</tspan></text>
<text
           id="text154"
           style="font-variant:normal;font-weight:900;font-size:100.84799957px;font-family:MyriadPro;-inkscape-font-specification:MyriadPro-BlackCond;writing-mode:lr-tb;fill:#ffffff;fill-opacity:1;fill-rule:nonzero;stroke:none"
           transform="matrix(1,0,0,-0.99159131,42.3043,2734.73)"><tspan
             id="tspan152"
             y="0"
             x="0">8</tspan></text>
</g><g
         transform="scale(1.826)"
         id="g156"><path
           id="path158"
           style="fill:#7e65b9;fill-opacity:1;fill-rule:nonzero;stroke:none"
           d="M 16300,0 H 0 V 776.178 H 16300 V 0" /></g><g
         transform="scale(10)"
         id="g160"><text
           id="text164"
           style="font-variant:normal;font-weight:900;font-size:117.76200104px;font-family:MyriadPro;-inkscape-font-specification:MyriadPro-BlackCond;writing-mode:lr-tb;fill:#ffffff;fill-opacity:1;fill-rule:nonzero;stroke:none"
           transform="matrix(1,0,0,-0.84917036,280.023,42.8199)"><tspan
             id="tspan162"
             y="0"
             x="0">A</tspan></text>
<text
           id="text168"
           style="font-variant:normal;font-weight:900;font-size:100px;font-family:MyriadPro;-inkscape-font-specification:MyriadPro-BlackCond;writing-mode:lr-tb;fill:#ffffff;fill-opacity:1;fill-rule:nonzero;stroke:none"
           transform="matrix(0.92909,0,0,-1,658.317,42.8199)"><tspan
             id="tspan166"
             y="0"
             x="0">B</tspan></text>
<text
           id="text172"
           style="font-variant:normal;font-weight:900;font-size:100px;font-family:MyriadPro;-inkscape-font-specification:MyriadPro-BlackCond;writing-mode:lr-tb;fill:#ffffff;fill-opacity:1;fill-rule:nonzero;stroke:none"
           transform="matrix(0.94106,0,0,-1,1021.93,42.8199)"><tspan
             id="tspan170"
             y="0"
             x="0 376.61801 766.625 1143.147 1493.2419 1867.83">CDEFGH</tspan></text>
</g></g></g></svg>