<?xml version="1.0" encoding="UTF-8" standalone="no"?>
<svg
   version="1.1"
   width="612pt"
   height="792pt"
   id="svg11"
   viewBox="0 0 612 792"
   sodipodi:docname="knight_-_white.cdr"
   xmlns:inkscape="http://www.inkscape.org/namespaces/inkscape"
   xmlns:sodipodi="http://sodipodi.sourceforge.net/DTD/sodipodi-0.dtd"
   xmlns="http://www.w3.org/2000/svg"
   xmlns:svg="http://www.w3.org/2000/svg">
  <defs
     id="defs15" />
  <sodipodi:namedview
     id="namedview13"
     pagecolor="#ffffff"
     bordercolor="#000000"
     borderopacity="0.25"
     inkscape:showpageshadow="2"
     inkscape:pageopacity="0.0"
     inkscape:pagecheckerboard="0"
     inkscape:deskcolor="#d1d1d1"
     inkscape:document-units="pt" />
  <path
     d="m 134.9515,579.8498 77.9332,-10.0202 182.9175,3.1357 C 622.5645,431.6271 488.5099,147.1182 299.6529,52.787 271.2524,30.332 284.9812,84.6952 287.9382,97.7784 c -17.9435,10.4525 -35.8866,20.9046 -53.8301,31.3571 -11.7781,44.6385 -31.918,98.6841 -96.4808,102.5583 l -4.4364,64.284 35.3377,-2.2802 c -1.5209,45.1553 78.9976,-12.1528 112.7184,-25.7348 L 385.0501,235.7706 C 304.2413,332.347 111.7588,471.7759 134.9515,579.8498 Z"
     style="fill:#b9e0ff;fill-rule:evenodd;stroke:#8d9eff;stroke-width:55.0001;stroke-linecap:butt;stroke-linejoin:miter;stroke-dasharray:none"
     id="path2" />
  <path
     d="M 553.3249,707.4419 H 56.3315 c -6.5685,-17.7674 -10.2967,-39.6201 0,-60.016 52.9983,-104.9863 443.9952,-104.9863 496.9934,0 10.2989,20.3959 6.5685,42.2486 0,60.016 z"
     style="fill:#b7dff4;fill-rule:evenodd;stroke:#8c9dff;stroke-width:55.0003;stroke-linecap:butt;stroke-linejoin:miter;stroke-dasharray:none"
     id="path4" />
  <g
     id="Layer1000">
    <path
       d="m 429.1074,226.5303 c -5.7021,35.6385 1.3452,59.2418 10.3363,94.1055 6.0477,23.9143 9.383,39.847 5.5705,63.9912 0.6417,12.3266 -40.926,91.3458 -51.9165,103.8849 -5.2549,4.4882 -11.0614,8.5697 -16.7378,12.6197 4.1426,-3.3601 12.6153,-9.7109 15.7757,-13.3804 11.9538,-16.806 48.8932,-85.3605 53.4644,-102.9699 5.1283,-24.6046 2.6602,-40.5963 -3.3018,-65.3082 -8.7458,-34.8892 -17.454,-60.2515 -6.3671,-94.8353 -13.1666,35.1635 -5.9476,60.4496 1.9329,96.6416 4.9382,23.3994 7.2153,38.9175 2.8341,62.2085 0.0151,10.1029 -40.3575,87.6327 -47.5646,105.0524 -2.2204,4.1541 -15.6358,15.6193 -20.3384,21.7051 6.2799,-7.453 16.6661,-14.1476 21.6876,-20.6375 13.9303,-22.635 46.0302,-81.046 53.1275,-104.2962 5.4417,-25.0137 3.2831,-41.6309 -2.7575,-66.8794 -8.3506,-33.0969 -17.1486,-57.3595 -15.1599,-91.5847 -0.1953,-0.1057 -0.3904,-0.2116 -0.5854,-0.3173 z"
       style="fill:#9edbf4;fill-rule:evenodd"
       id="path6" />
  </g>
  <path
     d="m 407.8263,241.0986 c 40.0643,46.6625 81.3643,90.8992 66.3552,151.2254 -3.6633,14.7234 -50.5516,95.0252 -64.1748,109.5649 -4.6959,5.012 -19.1357,15.8009 -21.2607,18.6643"
     style="fill:none"
     id="path9" />
</svg>
