<?xml version="1.0" encoding="UTF-8" standalone="no"?>
<svg
   version="1.1"
   width="612pt"
   height="792pt"
   id="svg11"
   viewBox="0 0 612 792"
   sodipodi:docname="knight-black.cdr"
   xmlns:inkscape="http://www.inkscape.org/namespaces/inkscape"
   xmlns:sodipodi="http://sodipodi.sourceforge.net/DTD/sodipodi-0.dtd"
   xmlns="http://www.w3.org/2000/svg"
   xmlns:svg="http://www.w3.org/2000/svg">
  <defs
     id="defs15" />
  <sodipodi:namedview
     id="namedview13"
     pagecolor="#ffffff"
     bordercolor="#000000"
     borderopacity="0.25"
     inkscape:showpageshadow="2"
     inkscape:pageopacity="0.0"
     inkscape:pagecheckerboard="0"
     inkscape:deskcolor="#d1d1d1"
     inkscape:document-units="pt" />
  <path
     d="M 558.1016,707.4181 H 61.1082 c -6.5685,-17.7674 -10.2968,-39.6201 0,-60.016 52.9982,-104.9863 443.9951,-104.9863 496.9934,0 10.2989,20.3959 6.5685,42.2486 0,60.016 z"
     style="fill:#8d72e1;fill-rule:evenodd;stroke:#6c4ab6;stroke-width:55.0003;stroke-linecap:butt;stroke-linejoin:miter;stroke-dasharray:none"
     id="path2" />
  <path
     d="m 134.9595,579.8387 77.9332,-10.0202 182.9174,3.1357 C 622.5725,431.6161 488.5179,147.1071 299.6608,52.7759 c -28.4005,-22.455 -14.6716,31.9082 -11.7147,44.9914 -17.9435,10.4525 -35.8866,20.9047 -53.8301,31.3572 -11.7781,44.6384 -31.9179,98.684 -96.4808,102.5582 l -4.4363,64.2841 35.3376,-2.2802 c -1.5209,45.1552 78.9976,-12.1529 112.7184,-25.7348 L 385.058,235.7595 C 304.2492,332.3359 111.7667,471.7648 134.9595,579.8387 Z"
     style="fill:#8d72e1;fill-rule:evenodd;stroke:#6c4ab6;stroke-width:55.0001;stroke-linecap:butt;stroke-linejoin:miter;stroke-dasharray:none"
     id="path4" />
  <g
     id="Layer1000">
    <path
       d="m 430.8986,229.516 c -5.7023,35.639 1.3452,59.2416 10.3363,94.1057 6.048,23.9141 9.3831,39.8473 5.5705,63.991 0.6416,12.3261 -40.9262,91.3466 -51.9165,103.8845 -5.2434,4.4848 -11.069,8.5757 -16.7378,12.6201 4.1364,-3.3545 12.6233,-9.7176 15.7752,-13.3804 11.9525,-16.8017 48.8944,-85.3635 53.4649,-102.9698 5.1286,-24.6047 2.6602,-40.5963 -3.3017,-65.3083 -8.7461,-34.889 -17.4541,-60.2515 -6.3672,-94.8352 -13.1664,35.1632 -5.9476,60.4497 1.9329,96.6415 4.9382,23.3994 7.2153,38.9175 2.8341,62.2085 0.0153,10.1022 -40.3574,87.6335 -47.5646,105.0519 -2.2242,4.1597 -15.6331,15.6165 -20.3384,21.7057 6.2799,-7.4528 16.6659,-14.1477 21.6873,-20.6376 13.9302,-22.6341 46.0307,-81.0467 53.1278,-104.2961 5.4417,-25.0135 3.2834,-41.6309 -2.7574,-66.8793 -8.3507,-33.0971 -17.1487,-57.3592 -15.16,-91.5849 -0.1953,-0.1057 -0.3904,-0.2116 -0.5854,-0.3173 z"
       style="fill:#6666cc;fill-rule:evenodd"
       id="path6" />
  </g>
  <path
     d="m 409.6176,244.0843 c 40.0642,46.6625 81.3642,90.8992 66.3551,151.2255 -3.6632,14.7233 -50.5516,95.0252 -64.1748,109.5648 -4.6959,5.0121 -19.1357,15.801 -21.2607,18.6644"
     style="fill:none"
     id="path9" />
</svg>
