<?xml version="1.0" encoding="UTF-8" standalone="no"?>
<svg
   version="1.1"
   width="612pt"
   height="792pt"
   id="svg20"
   viewBox="0 0 612 792"
   sodipodi:docname="queen-black.cdr"
   xmlns:inkscape="http://www.inkscape.org/namespaces/inkscape"
   xmlns:sodipodi="http://sodipodi.sourceforge.net/DTD/sodipodi-0.dtd"
   xmlns="http://www.w3.org/2000/svg"
   xmlns:svg="http://www.w3.org/2000/svg">
  <defs
     id="defs24" />
  <sodipodi:namedview
     id="namedview22"
     pagecolor="#ffffff"
     bordercolor="#000000"
     borderopacity="0.25"
     inkscape:showpageshadow="2"
     inkscape:pageopacity="0.0"
     inkscape:pagecheckerboard="0"
     inkscape:deskcolor="#d1d1d1"
     inkscape:document-units="pt" />
  <path
     d="m 253.0557,201.7494 101.7119,-1.1943 41.6258,404.2404 H 216.1355 Z"
     style="fill:#2781be;fill-rule:evenodd;stroke:#006db2;stroke-width:55.0001;stroke-linecap:butt;stroke-linejoin:miter;stroke-dasharray:none"
     id="path2" />
  <path
     d="M 520.5211,731.651 H 92.007 c -5.6635,-15.3194 -8.878,-34.161 0,-51.7466 45.6957,-90.5206 382.8183,-90.5206 428.5141,0 8.8798,17.5856 5.6635,36.4272 0,51.7466 z"
     style="fill:#2781be;fill-rule:evenodd;stroke:#006db2;stroke-width:63.1756;stroke-linecap:butt;stroke-linejoin:miter;stroke-dasharray:none"
     id="path4" />
  <path
     d="M 175.2853,304.0242 51.0684,55.089 l 92.1607,46.0807 38.5677,-45.58 69.6218,40.5706 58.6023,-46.5815 54.0944,45.0794 69.6218,-46.5815 38.0671,49.0858 89.6563,-43.5764 -124.2168,246.4309 z"
     style="fill:#4c85c1;fill-rule:evenodd;stroke:#3073b7;stroke-width:50;stroke-linecap:butt;stroke-linejoin:miter;stroke-dasharray:none"
     id="path6" />
  <path
     d="M 306.2648,333.9596 A 104.5358,13.3273 0 0 1 410.8005,347.2869 104.5358,13.3273 0 1 1 306.2648,333.9596 Z"
     style="fill:#4c85c1;fill-rule:evenodd;stroke:#006db2;stroke-width:50;stroke-linecap:butt;stroke-linejoin:miter;stroke-dasharray:none"
     id="path8" />
  <g
     id="Layer1000">
    <path
       d="m 436.3752,141.8083 c -3.7712,2.4905 -7.5922,4.9609 -11.2232,7.6523 -2.9616,2.3263 -5.8832,4.7835 -8.4391,7.5568 -25.9058,42.0034 -29.5562,42.5409 -5.0491,96.9433 0.0318,-43.8397 13.6672,-53.719 22.7194,-90.9443 0.2582,-4.3902 0.8018,-8.7474 1.7392,-13.046 0.5933,-1.7 2.1846,-6.8582 0.2528,-8.1621 z"
       style="fill:#008dae;fill-rule:evenodd"
       id="path10" />
  </g>
  <path
     d="m 440.2633,142.3398 c -4.3719,31.9665 -25.3525,67.4406 -48.0233,96.4319"
     style="fill:none"
     id="path13" />
  <g
     id="Layer1001">
    <path
       d="m 333.8116,412.0257 c -1.5351,3.4167 -2.5087,7.0277 -2.9871,10.7397 -0.4198,3.6465 -0.4101,7.3306 -0.089,10.9845 2.0282,11.7686 3.6108,21.7156 4.1358,33.7313 1.1418,8.3199 2.3324,15.4167 4.5195,23.6128 2.0022,5.554 4.1511,10.213 7.9846,14.7688 1.1748,1.7902 2.4054,3.4272 4.207,4.6304 1.341,1.4913 2.2124,1.0605 1.5522,-1.0757 0.8418,1.7632 0.5091,2.5342 -0.2592,0.8749 -0.9444,-1.3944 -1.5351,-3.114 -2.0468,-4.708 -1.8898,-4.8033 -2.9345,-9.6915 -3.8594,-14.7528 -1.0191,-7.2467 -1.4919,-16.6785 -2.7566,-23.3894 -0.849,-13.447 -3.4833,-22.2683 -7.0848,-34.9694 -1.3478,-3.9494 -2.3864,-7.9955 -2.7762,-12.1591 -0.0723,-1.5414 -0.0809,-7.1596 -0.54,-8.288 z"
       style="fill:#008dae;fill-rule:evenodd"
       id="path15" />
  </g>
  <path
     d="m 335.1785,412.1204 c -1.2225,17.6455 8.1436,32.6385 8.2388,55.325 0.0142,3.42 0.4272,43.6213 2.5991,46.8142"
     style="fill:none"
     id="path18" />
</svg>
