<?xml version="1.0" encoding="UTF-8" standalone="no"?>
<svg
   version="1.1"
   width="612pt"
   height="792pt"
   id="svg18"
   viewBox="0 0 612 792"
   sodipodi:docname="rook-white.cdr"
   xmlns:inkscape="http://www.inkscape.org/namespaces/inkscape"
   xmlns:sodipodi="http://sodipodi.sourceforge.net/DTD/sodipodi-0.dtd"
   xmlns="http://www.w3.org/2000/svg"
   xmlns:svg="http://www.w3.org/2000/svg">
  <defs
     id="defs22" />
  <sodipodi:namedview
     id="namedview20"
     pagecolor="#ffffff"
     bordercolor="#000000"
     borderopacity="0.25"
     inkscape:showpageshadow="2"
     inkscape:pageopacity="0.0"
     inkscape:pagecheckerboard="0"
     inkscape:deskcolor="#d1d1d1"
     inkscape:document-units="pt" />
  <path
     d="m 239.1104,207.7206 139.1483,-1.1943 56.9467,404.2403 H 188.6012 Z"
     style="fill:#62aedb;fill-rule:evenodd;stroke:#006db2;stroke-width:55.0001;stroke-linecap:butt;stroke-linejoin:miter;stroke-dasharray:none"
     id="path2" />
  <path
     d="M 526.1601,737.6221 H 97.6459 c -5.6634,-15.3193 -8.878,-34.161 0,-51.7466 45.6958,-90.5206 382.8184,-90.5206 428.5142,0 8.8798,17.5856 5.6634,36.4273 0,51.7466 z"
     style="fill:#62aedb;fill-rule:evenodd;stroke:#006db2;stroke-width:63.1756;stroke-linecap:butt;stroke-linejoin:miter;stroke-dasharray:none"
     id="path4" />
  <path
     d="m 134.1295,44.0067 h 59.6688 v 46.3171 h 85.0646 V 44.0067 h 67.0483 v 46.3171 h 85.0647 V 44.0067 h 58.7009 V 257.0531 H 134.1295 Z"
     style="fill:#79b0db;fill-rule:evenodd;stroke:#006db2;stroke-width:50;stroke-linecap:butt;stroke-linejoin:miter;stroke-dasharray:none"
     id="path6" />
  <g
     id="Layer1000">
    <path
       d="m 343.3266,314.1777 c -3.2097,7.1438 -5.2452,14.6936 -6.2456,22.4549 -0.8776,7.6241 -0.8574,15.3269 -0.1859,22.9666 4.2406,24.6061 7.5495,45.4036 8.6471,70.5262 2.3873,17.3954 4.8767,32.2337 9.4495,49.3702 4.1863,11.6124 8.6792,21.3537 16.6944,30.879 2.4562,3.7431 5.0292,7.1657 8.7962,9.6814 2.8037,3.1181 4.6256,2.2173 3.2454,-2.249 1.76,3.6864 1.0644,5.2985 -0.542,1.8292 -1.9746,-2.9154 -3.2097,-6.5109 -4.2795,-9.8436 -3.9512,-10.0429 -6.1356,-20.2632 -8.0693,-30.8455 -2.1309,-15.1517 -3.1193,-34.8718 -5.7637,-48.9033 -1.7751,-28.1151 -7.2828,-46.559 -14.813,-73.1149 -2.818,-8.2573 -4.9896,-16.717 -5.8045,-25.4225 -0.1511,-3.2227 -0.1693,-14.9695 -1.1291,-17.3287 z"
       style="fill:#58a7d7;fill-rule:evenodd"
       id="path8" />
  </g>
  <path
     d="m 346.1845,314.3758 c -2.556,36.8935 17.0269,68.2413 17.2259,115.6748 0.0297,7.1507 0.8932,91.2045 5.4343,97.8803"
     style="fill:none"
     id="path11" />
  <g
     id="Layer1001">
    <path
       d="m 435.3602,138.1995 c -2.842,2.0602 -5.489,4.4546 -7.7403,7.1518 -1.8329,2.3204 -3.4787,4.8685 -4.6803,7.5756 -1.0973,5.7019 -3.1362,11.2495 -3.8752,16.9693 -0.3801,7.6501 16.0571,31.2661 20.9537,42.9531 0.6327,-15.2989 -0.6287,-26.8713 -1.836,-41.7903 -0.4581,-5.978 -0.9255,-11.8778 -1.6231,-17.8368 -0.8394,-2.8868 -1.1827,-5.8521 -0.9664,-8.8531 0.258,-1.3085 1.0474,-5.2379 -0.2324,-6.1696 z"
       style="fill:#58a7d7;fill-rule:evenodd"
       id="path13" />
  </g>
  <path
     d="m 438.1985,138.5875 c -3.1915,23.3357 4.1899,42.01 -12.3599,63.1738"
     style="fill:none"
     id="path16" />
</svg>
